<svg width="40" height="40" viewBox="0 0 40 40" fill="none" xmlns="http://www.w3.org/2000/svg">
<mask id="mask0_431_882" style="mask-type:alpha" maskUnits="userSpaceOnUse" x="0" y="0" width="40" height="40">
<path d="M40 0H0V40H40V0Z" fill="#FF0000"/>
</mask>
<g mask="url(#mask0_431_882)">
<path d="M8.33333 22.3333H18.8333V34H8.33333V22.3333ZM21.1667 34H31.6667V22.3333H21.1667V34ZM34 17.6667V20H21.1667V16.4452C20.7863 16.479 20.399 16.5 20 16.5C19.601 16.5 19.2137 16.479 18.8333 16.4452V20H6V17.6667C6 16.7384 6.36875 15.8482 7.02513 15.1918C7.6815 14.5354 8.57174 14.1667 9.5 14.1667H13.1563C12.3477 13.4294 11.707 12.527 11.2774 11.5206C10.8479 10.5142 10.6396 9.42725 10.6667 8.33333H13C13 11.6945 15.2995 13.3582 17.844 13.9333C17.08 12.5704 16.6214 11.0577 16.5 9.5C16.5 8.57174 16.8687 7.6815 17.5251 7.02513C18.1815 6.36875 19.0717 6 20 6C20.9283 6 21.8185 6.36875 22.4749 7.02513C23.1313 7.6815 23.5 8.57174 23.5 9.5C23.3786 11.0577 22.92 12.5704 22.156 13.9333C24.7005 13.3582 27 11.6945 27 8.33333H29.3333C29.3604 9.42725 29.1521 10.5142 28.7226 11.5206C28.293 12.527 27.6523 13.4294 26.8437 14.1667H30.5C31.4283 14.1667 32.3185 14.5354 32.9749 15.1918C33.6313 15.8482 34 16.7384 34 17.6667ZM18.8333 9.5C18.9742 10.74 19.3715 11.9371 20 13.0152C20.6285 11.9371 21.0258 10.74 21.1667 9.5C21.1667 9.19058 21.0437 8.89383 20.825 8.67504C20.6062 8.45625 20.3094 8.33333 20 8.33333C19.6906 8.33333 19.3938 8.45625 19.175 8.67504C18.9562 8.89383 18.8333 9.19058 18.8333 9.5Z" fill="black"/>
</g>
</svg>
