<svg width="32" height="32" viewBox="0 0 32 32" fill="none" xmlns="http://www.w3.org/2000/svg">
<g id="&#234;&#178;&#128;&#236;&#131;&#137;">
<mask id="mask0_749_263" style="mask-type:alpha" maskUnits="userSpaceOnUse" x="0" y="0" width="32" height="32">
<path id="Rectangle Copy 13" d="M32 0H0V32H32V0Z" fill="#222222"/>
</mask>
<g mask="url(#mask0_749_263)">
<g id="Group">
<path id="Vector (Stroke)" fill-rule="evenodd" clip-rule="evenodd" d="M13.8094 6.39993C9.71663 6.39993 6.39883 9.71773 6.39883 13.8105C6.39883 17.9032 9.71663 21.221 13.8094 21.221C17.9021 21.221 21.2199 17.9032 21.2199 13.8105C21.2199 9.71773 17.9021 6.39993 13.8094 6.39993ZM4.79883 13.8105C4.79883 8.83408 8.83298 4.79993 13.8094 4.79993C18.7857 4.79993 22.8199 8.83408 22.8199 13.8105C22.8199 18.7868 18.7857 22.821 13.8094 22.821C8.83298 22.821 4.79883 18.7868 4.79883 13.8105Z" fill="#222222"/>
<path id="Vector (Stroke)_2" fill-rule="evenodd" clip-rule="evenodd" d="M25.834 26.9657L19.2656 20.3972L20.397 19.2659L26.9654 25.8343L25.834 26.9657Z" fill="#222222"/>
</g>
</g>
</g>
</svg>
