<svg width="40" height="40" viewBox="0 0 40 40" fill="none" xmlns="http://www.w3.org/2000/svg">
<mask id="mask0_38_11807" style="mask-type:alpha" maskUnits="userSpaceOnUse" x="0" y="0" width="40" height="40">
<path d="M40 0H0V40H40V0Z" fill="#222222"/>
</mask>
<g mask="url(#mask0_38_11807)">
<path fill-rule="evenodd" clip-rule="evenodd" d="M18.6106 10.8817C16.1848 8.37276 12.259 8.37276 9.83315 10.8817C7.38905 13.4096 7.38899 17.5242 9.83296 20.0521C9.8329 20.052 9.83303 20.0522 9.83296 20.0521L20.0001 30.5618L30.1669 20.0523C30.1668 20.0524 30.167 20.0522 30.1669 20.0523C32.6109 17.5244 32.611 13.4096 30.1669 10.8817C27.741 8.37276 23.8154 8.37276 21.3895 10.8817L20.0001 12.3153L18.6106 10.8817ZM20.0001 9.44188C23.216 6.16957 28.4088 6.18612 31.6047 9.49153C34.7985 12.7947 34.7985 18.1394 31.6047 21.4425L20.0001 33.4382L8.39552 21.4427C5.20178 18.1396 5.20159 12.7947 8.39533 9.49153C11.5913 6.18612 16.7841 6.16957 20.0001 9.44188Z" fill="#222222"/>
</g>
</svg>
