<svg width="40" height="40" viewBox="0 0 40 40" fill="none" xmlns="http://www.w3.org/2000/svg">
<mask id="mask0_303_5906" style="mask-type:alpha" maskUnits="userSpaceOnUse" x="0" y="0" width="40" height="40">
<path d="M40 0H0V40H40V0Z" fill="#FF0000"/>
</mask>
<g mask="url(#mask0_303_5906)">
<path d="M33.755 33.3334H6.25499C5.96182 33.3354 5.67401 33.2593 5.42003 33.1128C5.16606 32.9664 4.95478 32.7548 4.80968 32.5C4.66174 32.2447 4.58494 31.9544 4.5867 31.6594C4.58846 31.3643 4.66847 31.0755 4.81945 30.822L18.5694 7.44143C18.7157 7.18987 18.9257 6.98132 19.1782 6.83678C19.4307 6.69223 19.7173 6.61736 20.0083 6.61868C20.2988 6.6171 20.5847 6.69217 20.8367 6.83678C21.0887 6.98138 21.2985 7.18979 21.4438 7.44143L35.1987 30.822C35.3497 31.0755 35.4297 31.3643 35.4314 31.6594C35.4332 31.9544 35.3564 32.2447 35.2084 32.5C35.0627 32.756 34.8504 32.9687 34.5948 33.1153C34.3393 33.2618 34.0496 33.3369 33.755 33.3334ZM18.9047 27.7303V30.3182H21.2176V27.7303H18.9047ZM18.921 14.3303L18.9829 16.7953L19.297 25.7447H20.8058L21.1915 14.3303H18.921Z" fill="#FF0000"/>
</g>
</svg>
