<svg width="40" height="40" viewBox="0 0 40 40" fill="none" xmlns="http://www.w3.org/2000/svg">
<mask id="mask0_303_5891" style="mask-type:alpha" maskUnits="userSpaceOnUse" x="0" y="0" width="40" height="40">
<path d="M40 0H0V40H40V0Z" fill="#222222"/>
</mask>
<g mask="url(#mask0_303_5891)">
</g>
<g clip-path="url(#clip0_303_5891)">
<path d="M32 20C32 26.6274 26.6274 32 20 32C13.3726 32 8 26.6274 8 20C8 13.3726 13.3726 8 20 8C26.6274 8 32 13.3726 32 20Z" stroke="#0063B4" stroke-width="2"/>
<path d="M20 24.875C19.1025 24.875 18.375 25.6025 18.375 26.5C18.375 27.3975 19.1025 28.125 20 28.125C20.8975 28.125 21.625 27.3975 21.625 26.5C21.625 25.6025 20.8975 24.875 20 24.875Z" fill="#0063B4"/>
<path d="M18.7 22.275L21.3 22.275L21.3 11.875L18.7 11.875L18.7 22.275Z" fill="#0063B4"/>
</g>
<defs>
<clipPath id="clip0_303_5891">
<rect width="26" height="26" fill="white" transform="translate(7 7)"/>
</clipPath>
</defs>
</svg>
