<svg width="40" height="40" viewBox="0 0 40 40" fill="none" xmlns="http://www.w3.org/2000/svg">
<mask id="mask0_431_876" style="mask-type:alpha" maskUnits="userSpaceOnUse" x="0" y="0" width="40" height="40">
<path d="M40 0H0V40H40V0Z" fill="#FF0000"/>
</mask>
<g mask="url(#mask0_431_876)">
<path d="M30.5 14.1667H26.8437C27.6523 13.4294 28.293 12.527 28.7226 11.5206C29.1521 10.5142 29.3604 9.42725 29.3333 8.33333H27C27 11.6945 24.7005 13.3582 22.156 13.9333C22.92 12.5704 23.3786 11.0577 23.5 9.5C23.5 8.57174 23.1313 7.6815 22.4749 7.02513C21.8185 6.36875 20.9283 6 20 6C19.0717 6 18.1815 6.36875 17.5251 7.02513C16.8687 7.6815 16.5 8.57174 16.5 9.5C16.6214 11.0577 17.08 12.5704 17.844 13.9333C15.2995 13.3582 13 11.6945 13 8.33333H10.6667C10.6396 9.42725 10.8479 10.5142 11.2774 11.5206C11.707 12.527 12.3477 13.4294 13.1563 14.1667H9.5C8.57174 14.1667 7.6815 14.5354 7.02513 15.1918C6.36875 15.8482 6 16.7384 6 17.6667L6 22.3333H8.33333V34H31.6667V22.3333H34V17.6667C34 16.7384 33.6313 15.8482 32.9749 15.1918C32.3185 14.5354 31.4283 14.1667 30.5 14.1667ZM20 8.33333C20.3094 8.33333 20.6062 8.45625 20.825 8.67504C21.0437 8.89383 21.1667 9.19058 21.1667 9.5C21.0258 10.74 20.6285 11.9371 20 13.0152C19.3715 11.9371 18.9742 10.74 18.8333 9.5C18.8333 9.19058 18.9562 8.89383 19.175 8.67504C19.3938 8.45625 19.6906 8.33333 20 8.33333ZM8.33333 17.6667C8.33333 17.3572 8.45625 17.0605 8.67504 16.8417C8.89383 16.6229 9.19058 16.5 9.5 16.5H18.8333V20H8.33333V17.6667ZM10.6667 22.3333H18.8333V31.6667H10.6667V22.3333ZM29.3333 31.6667H21.1667V22.3333H29.3333V31.6667ZM31.6667 20H21.1667V16.5H30.5C30.8094 16.5 31.1062 16.6229 31.325 16.8417C31.5438 17.0605 31.6667 17.3572 31.6667 17.6667V20Z" fill="#222222"/>
</g>
</svg>
